<?xml version="1.0" encoding="UTF-8" standalone="no"?>
<!DOCTYPE svg PUBLIC "-//W3C//DTD SVG 1.1//EN" "http://www.w3.org/Graphics/SVG/1.1/DTD/svg11.dtd">
<svg width="500.00" height="500.00" viewBox="0.00 0.00 500.00 500.00" xmlns="http://www.w3.org/2000/svg" xmlns:xlink="http://www.w3.org/1999/xlink">
<g stroke-linecap="round" id="Layer_5">
<path d="M471.74,332.81 C472.16,332.80 472.41,332.80 472.52,332.81 C472.62,332.82 472.72,332.85 472.80,332.90" fill="none" stroke="rgb(0, 0, 0)" stroke-width="12.00" stroke-opacity="1.00" stroke-linejoin="round"/>
<path d="M472.80,332.90 L254.64,71.57" fill="none" stroke="rgb(0, 0, 0)" stroke-width="12.00" stroke-opacity="1.00" stroke-linejoin="round"/>
<path d="M254.64,71.56 C254.64,71.56 253.11,71.56 253.11,71.56" fill="none" stroke="rgb(0, 0, 0)" stroke-width="12.00" stroke-opacity="1.00" stroke-linejoin="round"/>
<path d="M253.11,71.56 L24.81,327.20" fill="none" stroke="rgb(0, 0, 0)" stroke-width="12.00" stroke-opacity="1.00" stroke-linejoin="round"/>
<path d="M24.84,327.20 C24.84,327.20 25.48,327.05 25.48,327.05" fill="none" stroke="rgb(0, 0, 0)" stroke-width="12.00" stroke-opacity="1.00" stroke-linejoin="round"/>
<path d="M25.48,327.05 L474.24,334.00" fill="none" stroke="rgb(0, 0, 0)" stroke-width="12.00" stroke-opacity="1.00" stroke-linejoin="round"/>
<path d="M474.32,334.10" fill="none" stroke="rgb(0, 0, 0)" stroke-width="12.00" stroke-opacity="1.00" stroke-linejoin="round"/>
<path d="M474.32,334.10 L15.58,334.86" fill="none" stroke="rgb(0, 0, 0)" stroke-width="12.00" stroke-opacity="1.00" stroke-linejoin="round"/>
<path d="M15.58,334.84" fill="none" stroke="rgb(0, 0, 0)" stroke-width="12.00" stroke-opacity="1.00" stroke-linejoin="round"/>
<path d="M15.58,334.84 L254.93,72.08" fill="none" stroke="rgb(0, 0, 0)" stroke-width="12.00" stroke-opacity="1.00" stroke-linejoin="round"/>
<path d="M254.93,72.48" fill="none" stroke="rgb(0, 0, 0)" stroke-width="12.00" stroke-opacity="1.00" stroke-linejoin="round"/>
<path d="M84.63,271.37 C84.26,271.38 83.31,271.30 82.92,271.63 C81.67,272.71 73.38,284.76 73.39,285.05 C86.44,272.91 97.89,259.77 99.36,257.27 C96.00,258.64 73.04,282.87 69.20,288.74 C69.20,288.74 94.32,263.17 94.32,263.17 C94.32,263.17 59.33,298.68 59.33,298.68 C65.84,291.42 80.78,280.55 83.69,278.83 C83.69,278.83 50.85,306.99 50.85,306.99 C50.85,306.99 78.92,285.65 78.92,285.65 C72.79,291.80 51.32,307.65 47.96,309.78 C47.96,309.78 75.51,294.91 75.51,294.91 C75.51,294.91 47.90,313.59 47.90,313.59 C47.90,313.59 70.10,304.27 70.10,304.27 C70.10,304.27 44.50,320.47 44.50,320.47 C44.50,320.47 69.04,309.23 69.04,309.23 C56.56,317.25 44.35,319.83 43.03,320.00 C45.26,318.88 65.54,314.53 68.25,313.59 C77.77,310.21 81.80,307.88 83.07,307.05 C83.07,307.05 64.82,310.83 64.82,310.83 C70.85,307.81 78.92,301.96 86.74,295.78 C91.68,291.76 98.57,285.47 99.04,284.55 C99.04,284.55 69.77,306.33 69.77,306.33 C69.77,306.33 103.94,273.12 103.94,273.12 C103.94,273.12 79.45,299.10 79.45,299.10 C79.45,299.10 113.89,262.53 113.89,262.53 C111.53,264.89 100.62,276.23 94.71,282.43 C89.02,288.47 80.33,297.77 74.84,305.09 C76.32,305.00 80.40,301.97 83.25,299.63 C93.85,290.73 112.57,274.45 118.48,270.54 C117.34,272.97 106.32,284.97 100.61,290.89 C89.23,302.34 76.20,315.45 74.55,317.11 C75.61,316.25 111.27,283.97 116.84,279.39 C119.10,277.54 122.02,275.34 123.05,274.59 C124.31,277.30 80.94,318.03 80.41,318.37 C80.41,318.37 124.89,275.96 124.89,275.96 C120.95,278.69 83.52,309.62 78.13,313.03 C73.83,315.66 73.05,315.75 72.03,315.28 C72.03,315.28 73.84,306.11 73.84,306.11 C72.76,305.56 68.21,307.83 65.67,310.45 C63.36,312.88 62.16,315.07 62.06,315.81 C62.56,316.46 66.60,315.76 69.39,314.43 C74.29,312.11 89.67,305.45 96.93,301.24 C98.56,300.28 101.25,298.70 102.32,298.07 C102.32,298.07 68.62,323.18 68.62,323.18 C68.05,322.99 107.92,300.56 118.49,294.29 C121.77,292.29 126.38,289.06 127.94,287.97 C124.33,289.58 83.97,315.92 77.40,319.76 C74.60,321.35 69.90,324.02 69.08,324.36 C81.78,317.79 108.54,304.38 123.55,297.93 C130.75,294.96 138.99,291.57 140.03,291.14 C140.03,291.14 90.02,322.30 90.02,322.30 C92.71,321.56 128.03,301.22 136.64,295.79 C142.65,291.86 153.11,284.31 156.56,281.33 C153.82,282.33 113.85,312.25 110.46,314.58 C109.07,315.54 107.16,316.61 104.37,318.10 C105.35,316.13 107.00,314.21 109.95,311.60 C114.76,307.49 153.20,280.42 154.69,279.57 C154.69,279.57 105.74,324.58 105.74,324.58 C105.34,323.89 108.90,319.43 111.33,316.56 C119.56,307.03 162.14,265.14 162.78,264.00 C150.17,272.48 117.09,300.38 116.79,300.53 C142.78,275.41 162.74,258.51 165.46,256.52 C157.43,264.92 121.31,294.07 119.24,295.69 C119.48,294.19 145.90,262.78 156.15,250.49 C158.90,247.15 159.49,246.00 159.70,244.75 C155.44,246.77 149.07,251.62 140.72,258.54 C128.93,268.49 112.84,282.59 109.91,284.81 C109.91,284.81 154.36,236.60 154.36,236.60 C150.99,238.12 137.31,248.94 130.75,254.24 C110.81,271.34 108.65,272.79 107.79,273.30 C107.79,273.30 144.40,228.80 144.40,228.80 C143.79,228.38 139.34,232.10 137.56,233.66 C134.43,236.45 107.87,264.18 100.36,271.99 C100.36,271.99 147.61,217.81 147.61,217.81 C139.21,225.15 105.74,263.05 101.96,267.54 C101.96,267.54 153.11,209.29 153.11,209.29 C138.60,221.71 115.09,250.75 114.42,251.58 C114.08,249.35 158.92,196.61 159.23,196.64 C159.23,196.64 119.75,242.68 119.75,242.68 C119.75,242.68 167.49,186.53 167.49,186.53 C139.60,213.04 124.38,232.46 123.38,233.75 C124.36,233.17 159.62,192.40 163.99,187.78 C164.84,186.88 172.89,178.77 173.36,178.35 C143.81,209.63 132.62,223.36 131.58,224.71 C132.52,224.31 158.50,196.69 169.80,185.30 C183.84,171.60 189.56,166.93 190.59,166.09 C190.59,166.09 144.89,225.42 144.89,225.42 C148.90,221.95 177.27,190.50 188.48,178.75 C192.15,174.95 194.53,172.58 197.79,169.51 C197.79,169.51 155.60,223.26 155.60,223.26 C155.60,223.26 201.52,176.68 201.52,176.68 C201.52,176.68 150.91,237.28 150.91,237.28 C160.29,226.82 179.11,206.27 188.05,197.13 C202.37,183.27 209.29,177.87 210.26,177.18 C208.82,180.35 206.93,183.11 203.45,187.43 C167.04,231.39 163.62,236.87 162.63,238.58 C163.37,238.90 164.41,238.36 166.29,236.59 C172.69,230.42 203.90,197.10 208.71,192.29 C212.58,188.46 218.74,182.44 224.61,177.62 C224.61,177.62 177.61,234.47 177.61,234.47 C187.89,223.88 207.98,202.64 218.36,192.28 C225.96,185.04 229.67,181.95 231.31,180.80 C231.31,180.80 189.02,232.46 189.02,232.46 C191.71,230.45 221.97,199.58 229.38,192.74 C238.33,184.74 242.50,181.79 243.76,181.02 C240.38,186.75 202.50,229.33 201.52,230.67 C232.47,198.86 245.28,188.19 248.60,186.08 C248.60,186.08 249.38,186.91 249.38,186.91 C246.11,192.79 215.07,231.04 213.05,233.93 C217.09,230.17 245.46,201.23 254.68,193.41 C258.19,190.44 260.92,188.23 262.31,188.67 C258.48,195.04 235.03,221.85 225.29,232.92 C235.64,222.27 258.71,198.78 265.03,194.23 C265.36,194.00 266.07,193.54 267.15,192.85 C267.15,192.85 268.31,193.62 268.31,193.62 C266.96,196.84 255.39,212.49 251.93,216.75 C247.40,222.21 237.57,234.02 235.87,236.58 C241.14,231.27 266.93,204.46 273.29,198.95 C274.74,197.70 278.47,195.55 279.46,194.99 C279.37,197.11 279.06,198.33 278.02,199.90 C272.46,208.48 245.77,240.59 244.29,242.70 C246.63,242.09 249.89,239.02 253.13,235.77 C273.05,215.29 277.25,211.26 280.61,208.27 C282.72,206.38 284.17,205.60 285.90,205.32 C283.78,210.32 278.52,217.44 270.67,227.39 C265.52,233.86 256.68,244.96 256.00,246.42 C259.79,242.84 280.07,221.43 284.21,217.64 C286.02,215.98 287.22,215.33 288.61,215.16 C286.65,219.57 281.46,226.42 273.29,236.26 C271.08,238.89 267.57,243.04 266.26,244.56 C266.98,243.88 280.52,230.41 285.75,225.64 C288.28,223.37 293.47,218.75 296.93,216.93 C296.66,219.33 292.87,224.81 291.19,227.04 C288.63,230.40 275.95,244.30 273.42,246.47 C272.94,244.30 273.22,241.26 273.04,240.20 C272.96,239.72 272.59,238.94 271.95,237.88 C269.27,237.38 267.53,237.29 265.96,237.76 C263.15,238.60 251.58,243.79 237.54,251.07 C209.92,266.07 175.14,284.98 172.27,285.91 C172.27,285.91 172.90,284.27 172.90,284.27 C171.95,283.62 158.92,286.02 153.00,287.04 C148.62,287.87 144.07,289.39 140.11,291.06 C140.03,291.07 152.47,279.34 158.35,273.66 C166.91,265.30 172.35,260.34 179.32,255.04 C180.94,253.80 181.62,253.55 182.26,253.78 C182.26,253.78 146.99,294.81 146.99,294.81 C146.99,294.81 174.49,263.72 174.49,263.72 C174.49,263.72 147.90,295.42 147.90,295.42 C150.85,294.60 161.98,286.31 168.21,281.65 C169.23,280.87 170.25,280.09 171.27,279.31 C162.27,285.78 152.14,292.53 146.23,295.39 C143.11,296.89 127.15,303.52 123.43,305.83 C123.43,305.83 149.94,303.15 149.94,303.15 C128.50,311.33 122.00,312.86 118.50,313.58 C118.50,313.58 145.77,312.68 145.77,312.68 C145.77,312.68 119.23,317.33 119.23,317.33 C132.57,319.35 148.13,316.98 151.29,316.48 C151.29,316.48 115.49,322.42 115.49,322.42 C124.07,323.33 139.16,323.52 142.98,323.06 C147.44,322.50 155.89,320.23 157.82,319.65 C157.82,319.65 138.77,320.00 138.77,320.00 C138.98,319.99 155.35,319.55 161.68,318.60 C164.92,318.10 171.37,316.63 173.94,315.63 C170.51,315.41 162.81,314.93 160.85,314.31 C159.26,313.78 157.94,312.08 157.72,310.47 C157.58,308.96 159.84,303.44 162.38,299.58 C167.44,291.97 190.11,268.05 192.59,265.83 C192.59,265.83 162.75,307.89 162.75,307.89 C168.39,303.20 191.61,279.18 201.71,268.92 C204.15,266.49 206.48,264.34 209.26,262.25 C209.26,262.25 210.34,263.14 210.34,263.14 C208.40,267.10 201.27,277.08 196.25,283.46 C186.21,295.63 173.10,311.37 170.04,314.94 C171.34,312.98 200.81,280.19 206.58,274.47 C207.94,273.16 210.83,271.16 211.61,270.62 C211.12,273.18 208.18,277.53 206.50,279.78 C202.28,285.41 180.90,311.59 181.04,312.01 C183.62,309.61 218.19,273.39 221.64,270.24 C222.83,269.16 223.74,268.43 225.53,267.07 C225.53,267.07 227.02,267.35 227.02,267.35 C224.91,271.99 214.76,285.83 212.60,288.47 C200.18,303.23 190.45,313.85 190.41,313.64 C195.28,307.94 206.22,295.26 209.01,292.20 C213.66,287.32 223.31,277.56 226.92,275.47 C226.08,278.23 223.15,282.23 221.36,284.62 C216.56,290.82 196.44,313.39 194.80,314.71 C199.48,309.50 209.40,298.51 213.58,294.05 C221.03,286.55 222.61,285.50 224.48,284.68 C224.12,287.50 220.80,293.06 219.00,295.66 C214.42,302.13 209.02,308.83 201.50,317.18 C201.50,317.18 219.36,294.11 219.36,294.11 C219.04,294.19 202.03,306.22 198.36,308.56 C193.72,311.53 182.68,317.64 175.39,321.04 C175.39,321.04 216.42,316.31 216.42,316.31 C216.42,316.31 178.13,322.87 178.13,322.87 C184.40,323.34 197.70,324.18 203.65,323.20 C204.82,323.00 211.70,321.79 212.59,321.76 C212.59,321.76 211.54,321.71 211.54,321.71 C220.27,320.99 232.57,318.91 241.22,318.53 C242.18,318.49 243.13,318.44 244.09,318.40 C223.98,322.79 215.53,321.18 215.26,320.82 C215.26,320.82 262.63,315.37 262.63,315.37 C262.63,315.37 229.73,318.21 229.73,318.21 C229.72,318.21 247.99,318.38 256.06,318.36 C265.16,318.15 272.33,317.31 275.29,316.78 C275.29,316.78 217.18,317.79 217.18,317.79 C217.59,316.01 218.19,315.03 219.96,313.59 C225.16,309.23 229.23,305.93 229.60,304.16 C229.66,303.87 229.54,299.32 229.78,297.68 C230.22,294.74 235.36,280.60 236.40,277.32 C233.69,278.74 230.47,282.59 228.55,285.12 C223.90,291.51 218.41,299.07 217.57,300.23 C217.57,300.23 251.89,264.39 251.89,264.39 C251.89,264.39 227.45,295.92 227.45,295.92 C230.11,294.66 233.68,291.67 236.48,289.03 C247.58,278.27 263.90,262.56 268.56,258.50 C270.36,256.95 271.75,256.26 273.42,256.00 C271.94,260.00 268.59,264.74 266.82,267.02 C262.79,272.21 242.67,294.79 236.59,301.54 C251.29,285.20 258.74,277.57 264.26,272.25 C268.23,268.50 270.09,267.26 272.57,266.06 C272.54,267.95 272.12,269.42 270.83,271.50 C266.01,279.18 249.21,298.70 246.77,301.51 C247.09,301.46 269.56,276.27 274.15,271.46 C277.47,268.01 278.65,267.31 279.80,267.20 C277.95,271.24 270.78,280.73 264.52,288.30 C258.12,295.79 244.81,310.38 244.00,311.26 C251.89,303.55 283.06,270.96 285.89,269.24 C286.39,268.93 287.29,268.58 288.57,268.17 C287.55,271.61 280.56,280.94 274.29,288.47 C262.54,301.94 253.19,311.15 250.63,313.54 C250.35,313.29 261.96,300.44 267.17,294.79 C279.45,282.00 289.57,273.79 294.00,271.32 C293.96,272.94 293.55,274.23 292.26,276.01 C289.53,279.74 276.04,295.42 272.71,298.96 C267.70,304.04 258.71,313.03 256.92,314.39 C259.13,311.49 270.53,299.76 275.59,294.64 C280.19,290.23 291.46,280.12 294.20,277.99 C296.01,276.57 297.11,276.09 298.32,276.11 C296.48,279.84 288.12,290.08 282.87,295.83 C277.25,301.81 266.42,312.78 263.48,315.47 C267.10,311.15 277.10,301.30 282.48,296.05 C291.07,287.78 295.53,283.94 302.11,279.21 C302.21,280.75 298.37,286.07 297.90,286.65 C292.38,293.54 272.94,314.08 268.53,318.14 C268.53,318.14 301.27,286.35 301.27,286.35 C300.14,289.10 297.85,292.70 295.16,295.64 C280.28,311.39 271.44,319.29 265.41,324.10 C265.25,323.22 268.44,319.33 270.72,316.89 C285.33,301.58 295.50,292.63 298.68,290.64 C297.59,294.36 277.54,314.24 269.88,320.63 C270.56,318.13 271.36,316.26 272.94,313.67 C274.52,311.08 274.79,309.87 274.18,308.94 C263.38,314.16 258.82,315.39 255.44,315.56 C255.44,315.56 282.29,317.06 282.29,317.06 C282.11,317.79 266.51,321.69 259.08,322.82 C251.90,323.89 247.47,323.65 246.52,323.49 C246.72,321.75 278.53,321.76 279.43,321.79 C279.71,322.18 266.08,326.11 259.07,326.91 C257.10,327.13 254.24,327.31 252.65,327.34 C252.65,327.34 296.64,318.79 296.64,318.79 C296.64,318.79 286.52,320.19 286.52,320.19 C287.11,320.19 288.80,319.87 290.10,319.41 C291.84,318.78 294.34,317.38 296.82,315.76" fill="none" stroke="rgb(0, 0, 0)" stroke-width="12.00" stroke-opacity="1.00" stroke-linejoin="round"/>
<path d="M202.56,260.25 C203.92,259.31 204.66,258.65 206.13,257.02 C217.78,244.34 238.64,221.51 242.72,216.34 C239.53,217.31 235.23,220.71 231.92,223.46 C220.38,233.38 196.27,254.14 183.69,264.98 C169.15,277.26 165.59,279.31 164.76,279.78 C165.59,277.05 169.47,272.01 171.25,269.85 C176.84,263.12 203.27,235.77 212.50,227.20 C221.38,219.11 227.58,213.86 232.48,210.24 C231.73,212.28 202.70,239.40 190.15,251.02 C179.13,261.20 164.57,274.65 159.78,278.29 C160.23,276.28 164.32,270.61 166.11,268.33 C178.52,253.01 217.13,209.32 220.96,204.89 C219.45,205.27 189.60,234.59 177.96,246.04 C172.00,251.71 166.69,254.75 165.15,255.50" fill="none" stroke="rgb(0, 0, 0)" stroke-width="12.00" stroke-opacity="1.00" stroke-linejoin="round"/>
<path d="M240.52,240.91 C235.83,245.06 225.73,254.16 220.43,259.47 C218.46,261.47 214.29,265.86 213.88,267.11 C213.88,267.11 253.74,233.96 253.74,233.96 C242.56,245.08 223.51,264.37 219.99,269.58 C222.04,269.68 226.90,266.64 230.32,264.18 C237.46,259.01 258.05,244.15 260.44,242.70 C262.52,241.40 263.93,241.08 265.75,241.36 C265.14,243.68 263.29,247.29 260.97,250.28 C257.01,255.34 246.55,266.31 239.56,272.59 C236.19,275.62 234.40,276.83 230.57,278.70 C230.08,276.83 230.15,275.37 231.07,273.18 C232.62,269.50 241.65,250.09 242.70,247.06 C242.97,246.23 243.61,243.13 243.51,242.38 C243.43,241.91 241.17,239.59 240.66,239.49 C237.59,238.98 227.35,243.33 216.77,248.85 C210.35,252.36 198.48,259.03 192.02,262.61 C181.90,267.96 177.88,269.32 176.65,269.61 C176.65,269.61 175.10,268.01 175.10,268.01 C176.98,262.31 181.50,254.88 188.15,245.03 C191.44,240.16 191.99,239.29 193.08,237.49 C193.08,237.49 163.76,264.62 163.76,264.62 C164.10,262.61 165.61,259.54 168.71,254.47 C172.74,248.09 178.33,239.14 180.24,234.84 C179.13,234.57 178.36,234.60 177.37,235.27 C174.75,237.04 150.42,256.23 149.38,257.05 C149.38,257.05 151.81,254.57 151.81,254.57" fill="none" stroke="rgb(0, 0, 0)" stroke-width="40.00" stroke-opacity="1.00" stroke-linejoin="round"/>
<path d="M261.38,160.19 C261.15,161.03 260.53,163.39 260.23,164.70 C259.06,169.83 258.70,172.50 258.64,173.97 C259.87,171.65 260.51,166.22 260.51,163.15 C260.50,159.60 259.70,153.20 259.26,151.25 C257.51,143.68 254.52,138.40 253.37,136.58 C253.72,138.39 275.95,171.96 284.99,185.29 C300.14,207.01 305.70,214.44 307.28,214.93 C306.00,210.88 298.37,198.51 292.95,190.30 C284.16,177.39 270.74,157.71 269.72,157.09 C273.08,164.30 290.60,191.22 299.20,204.19 C306.53,215.12 318.35,232.92 320.36,235.46 C319.40,232.74 316.73,228.06 315.12,225.61 C313.61,223.37 310.99,219.52 309.87,217.90" fill="none" stroke="rgb(0, 0, 0)" stroke-width="40.00" stroke-opacity="1.00" stroke-linejoin="round"/>
<path d="M289.70,176.21 C291.36,179.60 300.88,192.53 304.85,197.67 C310.42,204.59 330.30,227.37 334.46,231.37 C338.03,234.71 339.43,235.19 341.14,234.85 C340.68,232.06 338.98,227.67 336.62,223.64 C334.31,219.73 324.42,205.75 320.99,201.22 C316.36,195.42 306.60,183.26 301.46,176.90 C294.58,168.00 288.40,158.71 286.95,155.42 C286.95,155.42 333.78,221.61 333.78,221.61 C327.99,214.01 301.04,181.54 296.73,175.65 C294.25,172.22 292.20,168.89 292.00,167.65 C294.16,168.87 305.30,181.92 310.00,187.52 C329.06,210.50 335.86,218.26 337.53,219.22 C337.53,219.22 308.87,179.16 308.87,179.16 C308.87,179.16 348.60,222.53 348.60,222.53 C348.60,222.53 320.66,186.82 320.66,186.82 C320.66,186.82 351.41,225.15 351.41,225.15 C351.41,225.15 325.15,192.84 325.15,192.84 C325.15,192.84 370.40,247.60 370.40,247.60 C370.40,247.60 354.87,231.11 354.87,231.11 C354.87,231.11 390.86,272.33 390.86,272.33 C390.86,272.33 377.23,254.38 377.23,254.38 C377.23,254.38 416.11,302.44 416.11,302.44 C416.11,302.44 405.55,287.99 405.55,287.99 C405.55,287.99 426.71,310.66 426.71,310.66 C426.71,310.66 424.14,306.68 424.14,306.68 C424.14,306.68 427.10,309.79 427.10,309.79 C427.14,309.83 426.40,308.32 425.86,307.61 C424.51,305.89 392.79,289.41 377.04,279.62 C373.25,277.17 360.31,267.41 354.19,262.27 C342.64,252.07 325.98,237.40 321.63,233.80 C321.63,233.80 366.70,279.07 366.70,279.07 C366.52,279.15 334.50,254.74 320.49,244.27 C304.01,232.37 294.00,225.61 292.86,225.43 C295.93,228.61 322.98,251.70 332.52,258.73 C334.11,259.88 334.44,260.31 334.26,260.78 C330.76,259.99 290.99,243.32 287.60,242.64 C286.70,242.46 283.56,242.06 282.38,241.92 C281.96,243.79 282.21,245.15 283.65,246.84 C288.01,251.98 299.63,261.55 304.98,265.11 C311.80,269.61 320.64,273.72 323.31,274.32 C321.07,273.01 304.62,266.95 297.23,264.46 C278.18,258.55 261.99,255.28 257.11,255.15 C252.75,255.05 247.28,255.83 244.87,256.95 C243.13,257.81 241.95,258.61 240.93,259.65 C239.23,261.49 237.66,267.00 237.64,271.07 C237.65,272.72 237.56,273.89 237.37,274.76 C236.37,275.64 232.70,275.74 227.44,275.70 C205.80,275.52 180.54,276.26 162.56,277.70 C154.86,278.41 138.67,280.07 138.34,280.57 C142.08,282.80 158.26,287.17 165.70,287.91 C168.44,288.17 176.98,288.69 179.87,288.85 C170.56,290.10 157.82,292.36 150.07,293.91 C146.84,294.57 143.24,295.58 141.62,296.79 C143.19,297.89 148.93,298.92 152.16,299.49 C157.54,300.34 198.61,301.33 201.24,301.67 C201.24,301.67 164.16,301.98 164.16,301.98 C168.98,303.17 180.29,304.67 190.95,305.44 C206.14,306.19 238.09,306.89 253.16,306.81 C268.51,306.41 298.31,304.93 312.66,304.18 C308.65,304.30 293.18,302.99 285.66,301.89 C278.65,300.67 264.83,298.18 258.01,296.91 C258.38,296.52 297.03,303.23 313.03,305.75 C323.18,307.18 333.93,308.30 342.23,308.48 C345.59,308.55 352.17,308.26 353.81,307.61 C352.07,306.02 319.71,300.97 310.38,299.67 C316.62,300.86 331.35,303.46 339.16,304.54 C347.37,305.53 364.82,307.14 371.23,307.23 C378.91,307.32 387.96,306.39 390.39,306.12 C390.39,306.12 353.22,304.25 353.22,304.25 C373.29,307.43 393.29,309.98 407.39,310.21 C407.39,310.21 416.21,309.95 416.21,309.95 C416.21,309.95 394.73,302.45 394.73,302.45" fill="none" stroke="rgb(0, 0, 0)" stroke-width="40.00" stroke-opacity="1.00" stroke-linejoin="round"/>
<path d="M234.04,225.10 C221.54,231.50 189.98,247.79 182.71,251.80 C164.13,261.64 157.69,264.38 153.58,265.17 C153.58,265.17 152.21,263.61 152.21,263.61 C152.86,261.07 154.08,257.63 156.98,253.00 C158.28,250.93 170.42,232.62 171.30,229.96 C168.82,230.22 164.53,232.82 161.45,234.96 C148.09,244.32 129.11,257.61 126.99,258.44 C126.99,258.44 134.58,240.66 134.58,240.66 C134.58,240.66 116.13,254.93 116.13,254.93 C116.13,254.93 123.13,246.24 123.13,246.24 C123.13,246.24 111.03,255.33 111.03,255.33 C110.90,257.44 111.02,258.57 111.80,258.66 C112.06,258.70 112.85,258.71 114.16,258.70" fill="none" stroke="rgb(0, 0, 0)" stroke-width="40.00" stroke-opacity="1.00" stroke-linejoin="round"/>
<path d="M196.55,211.17 C196.55,211.17 194.37,213.21 194.37,213.21 C194.37,213.21 251.41,161.01 251.41,161.01 C251.41,161.01 211.57,199.76 211.57,199.76 C238.60,174.17 247.38,160.12 249.22,156.22 C247.82,155.42 246.60,155.35 244.61,156.18 C239.13,158.50 226.30,166.17 219.62,170.22 C209.28,176.54 207.48,177.22 205.08,177.78 C205.10,175.99 205.30,174.82 206.04,173.67 C208.48,169.88 223.75,150.88 224.33,150.18 C224.33,150.18 189.80,182.28 189.80,182.28 C189.80,182.28 204.65,164.36 204.65,164.36 C204.65,164.36 184.00,183.18 184.00,183.18 C184.00,183.18 188.32,178.98 188.32,178.98 C188.32,178.98 186.94,178.98 186.94,178.98 C186.91,178.85 196.09,167.89 203.23,158.23 C208.34,151.46 216.71,142.43 223.99,135.89 C226.95,133.24 232.23,129.14 233.03,128.99 C233.03,128.99 220.12,143.75 220.12,143.75 C220.12,143.75 238.45,124.69 238.45,124.69 C238.45,124.69 230.47,134.94 230.47,134.94 C232.35,133.93 235.08,131.95 240.12,127.96 C240.60,127.58 241.45,126.95 242.64,126.05" fill="none" stroke="rgb(0, 0, 0)" stroke-width="40.00" stroke-opacity="1.00" stroke-linejoin="round"/>
<path d="M261.45,126.77 C262.70,129.01 264.44,131.70 267.13,135.59 C271.49,141.64 280.48,153.88 285.03,159.78 C289.37,165.22 295.68,171.66 297.37,172.80 C296.70,169.47 293.11,163.69 291.02,160.35 C285.21,151.20 283.05,147.36 281.25,143.98 C281.25,143.98 305.46,176.74 305.46,176.74 C305.79,174.95 303.54,171.23 299.87,165.41 C297.22,161.21 292.80,154.20 291.02,151.38 C296.82,161.71 307.66,173.82 310.03,175.80 C310.03,175.80 300.41,163.80 300.41,163.80 C300.41,163.80 315.82,180.72 315.82,180.72 C315.82,180.72 296.23,161.66 296.23,161.66" fill="none" stroke="rgb(0, 0, 0)" stroke-width="40.00" stroke-opacity="1.00" stroke-linejoin="round"/>
<path d="M280.19,141.01 C279.80,139.06 277.34,133.14 276.10,131.06 C274.41,128.28 270.18,123.34 268.33,121.22 C268.33,121.22 279.98,138.35 279.98,138.35 C279.98,138.35 266.89,120.60 266.89,120.60 C266.89,120.60 270.41,130.29 270.41,130.29 C270.41,130.29 269.93,129.38 269.93,129.38" fill="none" stroke="rgb(0, 0, 0)" stroke-width="40.00" stroke-opacity="1.00" stroke-linejoin="round"/>
<path d="M256.83,121.28 C256.83,121.28 255.26,121.22 255.26,121.22 C254.00,119.71 253.44,118.54 253.45,117.02 C253.50,114.31 255.42,106.10 255.00,105.69 C254.49,105.25 249.43,109.93 248.30,110.97 C248.70,109.14 249.57,106.43 249.83,106.22 C250.00,106.10 247.51,111.30 247.36,111.93 C247.36,111.93 248.65,112.29 248.65,112.29" fill="none" stroke="rgb(0, 0, 0)" stroke-width="40.00" stroke-opacity="1.00" stroke-linejoin="round"/>
<path d="M258.27,89.41 C257.61,88.75 256.86,87.54 256.16,85.90 C255.99,85.50 255.69,84.75 255.28,83.66 C255.28,83.66 254.75,91.74 254.75,91.74 C254.75,91.74 253.52,85.00 253.52,85.00 C253.06,85.83 252.65,87.31 252.75,88.23 C252.81,88.82 253.43,89.80 254.00,90.57" fill="none" stroke="rgb(0, 0, 0)" stroke-width="12.00" stroke-opacity="1.00" stroke-linejoin="round"/>
<path d="M445.17,317.59 C445.17,317.59 446.06,315.83 446.06,315.83 C446.06,315.83 443.72,314.63 443.72,314.63 C443.72,314.63 457.73,328.59 457.73,328.59 C457.73,328.59 455.26,325.58 455.26,325.58 C455.26,325.58 460.29,328.13 460.29,328.13 C457.68,327.22 450.84,324.89 448.23,324.28 C440.52,322.50 434.18,323.52 433.00,323.82 C433.00,323.82 441.47,325.94 441.47,325.94 C441.47,325.94 432.24,320.81 432.24,320.81" fill="none" stroke="rgb(0, 0, 0)" stroke-width="12.00" stroke-opacity="1.00" stroke-linejoin="round"/>
<path d="M247.43,222.38 C247.43,222.38 216.28,249.29 216.28,249.29 C217.38,246.12 219.28,242.97 222.63,238.51 C233.01,225.15 247.49,206.37 251.58,200.93 C252.63,199.52 256.16,194.65 256.99,191.65 C257.18,190.92 257.37,190.19 257.56,189.46 C254.97,189.84 251.25,191.99 249.09,193.40 C242.79,197.54 212.06,220.41 199.04,230.11 C190.41,236.33 181.12,242.34 178.73,243.41 C178.48,241.96 179.07,240.46 180.98,237.94 C188.33,228.22 205.82,206.17 212.91,197.35 C203.97,206.57 183.71,227.17 172.38,238.56 C161.05,249.63 144.95,265.29 141.48,267.76 C141.87,264.83 144.42,260.98 145.94,258.68 C150.54,251.84 160.15,237.61 165.17,230.23 C167.42,227.04 170.28,222.97 170.90,222.10" fill="none" stroke="rgb(0, 0, 0)" stroke-width="12.00" stroke-opacity="1.00" stroke-linejoin="round"/>
<path d="M182.77,248.01 C182.77,248.01 180.59,252.73 180.59,252.73 C184.29,251.46 198.53,243.38 204.82,239.79 C220.60,230.94 233.20,225.76 233.97,225.85 C234.43,225.91 235.28,226.30 236.52,227.03 C236.25,229.83 235.46,233.32 234.35,235.81 C231.05,242.84 223.13,259.59 222.10,262.04 C220.58,265.74 220.01,268.11 219.85,272.36 C222.74,272.72 224.10,272.69 225.26,272.06 C228.66,270.20 243.78,259.33 250.81,254.26 C255.33,251.08 260.94,247.74 263.43,246.78 C265.91,245.85 267.91,245.66 269.63,246.08 C271.32,249.59 271.76,251.88 271.03,254.96 C269.12,263.36 260.85,279.40 259.34,284.36 C261.31,284.76 262.61,284.69 264.34,283.70 C267.80,281.72 287.43,269.66 290.92,267.90 C294.18,266.26 302.74,263.32 303.11,263.23 C305.14,262.81 307.50,262.85 309.09,263.39 C310.99,264.10 312.41,265.27 313.11,266.82 C314.14,269.26 314.74,275.78 314.79,281.08 C314.80,284.99 314.85,291.29 315.27,294.13 C315.57,295.84 316.91,297.23 318.60,297.48 C319.49,297.58 324.68,295.32 328.44,292.83 C329.46,292.15 339.39,285.32 340.46,284.64 C343.79,282.51 349.32,280.28 350.15,280.14 C352.05,279.85 354.47,280.36 355.41,281.34 C355.81,281.79 359.12,287.58 360.39,288.00 C361.43,288.32 370.51,289.16 372.08,290.00 C373.23,290.64 374.69,292.72 375.25,294.29 C375.49,295.00 376.46,298.82 376.82,299.70 C377.61,301.61 378.66,303.01 379.07,302.92 C379.84,302.20 379.14,297.31 377.86,294.45 C375.36,289.04 367.68,278.73 361.79,272.41 C361.22,271.80 360.65,271.19 360.07,270.58" fill="none" stroke="rgb(0, 0, 0)" stroke-width="12.00" stroke-opacity="1.00" stroke-linejoin="round"/>
<path d="M298.23,224.41 C298.23,224.41 303.04,235.56 303.04,235.56 C302.50,235.31 287.35,216.27 284.95,212.97 C283.19,210.54 273.64,194.90 271.12,189.89 C267.58,182.83 262.52,170.00 260.97,164.30 C258.94,156.78 258.25,147.11 257.79,146.17 C256.17,145.90 250.13,149.12 246.76,151.87 C241.84,156.26 236.48,161.02 234.73,162.33 C234.26,160.94 235.90,155.90 237.17,152.72 C243.63,136.56 248.55,130.99 249.41,130.23 C247.81,133.99 224.22,161.66 213.29,174.67 C202.53,187.68 180.85,213.52 169.92,226.35 C163.99,232.95 153.22,244.70 148.38,249.85 C140.44,258.01 128.33,268.70 127.53,269.45 C125.64,271.22 112.46,286.38 107.45,292.17 C106.91,292.78 106.37,293.40 105.82,294.01" fill="none" stroke="rgb(0, 0, 0)" stroke-width="12.00" stroke-opacity="1.00" stroke-linejoin="round"/>
<path d="M17.77,189.14 C17.77,189.14 17.72,189.54 17.72,189.54" fill="none" stroke="rgb(210, 12, 0)" stroke-width="12.00" stroke-opacity="1.00" stroke-linejoin="round"/>
<path d="M17.81,191.35 C17.98,190.29 18.00,188.81 17.78,187.55 C17.66,186.87 16.23,180.77 16.49,179.62 C16.74,178.64 17.98,177.01 18.79,176.41 C19.85,175.69 33.83,175.66 40.82,175.65 C47.04,175.61 65.47,174.39 65.83,174.52 C66.43,174.76 67.52,175.77 67.69,176.47 C68.24,179.06 68.16,184.10 68.16,189.35 C68.15,190.75 67.97,191.01 66.86,191.60 C64.71,192.58 62.64,192.91 56.95,193.50 C45.54,194.64 31.38,194.79 30.03,194.54 C27.97,194.15 22.33,191.32 20.81,190.10 C18.55,188.22 17.43,185.24 16.85,183.66 C15.69,185.52 15.60,190.20 16.54,191.40 C17.02,191.97 19.38,193.50 20.17,193.99 C22.84,195.61 30.00,196.57 31.33,196.73 C33.44,196.98 52.88,196.98 54.27,196.80 C58.65,196.22 64.80,194.81 65.93,194.31 C67.13,193.75 67.46,190.99 67.45,185.98 C67.45,182.72 67.44,177.20 67.11,176.79 C66.03,175.66 59.56,176.05 56.22,177.27 C53.07,178.43 47.84,178.91 45.66,179.04 C35.28,179.77 29.69,180.39 22.93,182.64 C35.88,184.47 45.27,185.32 50.51,184.39 C50.96,184.31 59.16,182.71 61.72,182.67 C60.40,182.69 59.25,182.80 58.90,182.67 C58.58,182.56 57.67,182.15 56.17,181.47" fill="none" stroke="rgb(210, 12, 0)" stroke-width="12.00" stroke-opacity="1.00" stroke-linejoin="round"/>
<path d="M67.83,172.72" fill="none" stroke="rgb(210, 12, 0)" stroke-width="12.00" stroke-opacity="1.00" stroke-linejoin="round"/>
<path d="M67.83,172.72 L19.21,172.16" fill="none" stroke="rgb(210, 12, 0)" stroke-width="12.00" stroke-opacity="1.00" stroke-linejoin="round"/>
<path d="M19.36,172.16" fill="none" stroke="rgb(210, 12, 0)" stroke-width="12.00" stroke-opacity="1.00" stroke-linejoin="round"/>
<path d="M18.65,173.04 C18.06,173.30 17.51,174.37 17.20,176.03 C17.11,176.48 17.10,176.96 17.03,177.42 C17.01,177.58 16.97,177.78 16.89,178.04" fill="none" stroke="rgb(210, 12, 0)" stroke-width="12.00" stroke-opacity="1.00" stroke-linejoin="round"/>
<path d="M18.43,176.01 C17.57,177.02 16.74,178.50 16.45,179.97 C16.28,180.81 16.15,181.92 16.05,183.30 C16.02,183.67 16.02,184.04 16.04,184.42" fill="none" stroke="rgb(210, 12, 0)" stroke-width="12.00" stroke-opacity="1.00" stroke-linejoin="round"/>
<path d="M67.21,171.88 C67.21,171.88 67.31,172.42 67.31,172.42" fill="none" stroke="rgb(210, 12, 0)" stroke-width="12.00" stroke-opacity="1.00" stroke-linejoin="round"/>
<path d="M69.48,173.58" fill="none" stroke="rgb(210, 12, 0)" stroke-width="12.00" stroke-opacity="1.00" stroke-linejoin="round"/>
<path d="M69.74,173.58 L68.91,197.27" fill="none" stroke="rgb(210, 12, 0)" stroke-width="12.00" stroke-opacity="1.00" stroke-linejoin="round"/>
<path d="M68.90,197.29" fill="none" stroke="rgb(210, 12, 0)" stroke-width="12.00" stroke-opacity="1.00" stroke-linejoin="round"/>
<path d="M68.90,197.29 L17.79,197.73" fill="none" stroke="rgb(210, 12, 0)" stroke-width="12.00" stroke-opacity="1.00" stroke-linejoin="round"/>
<path d="M17.81,197.70" fill="none" stroke="rgb(210, 12, 0)" stroke-width="12.00" stroke-opacity="1.00" stroke-linejoin="round"/>
<path d="M16.89,196.66 C16.90,196.67 16.89,196.63 16.89,196.61 C16.03,194.37 15.83,193.75 15.78,192.98 C15.77,192.75 15.73,192.32 15.66,191.70" fill="none" stroke="rgb(210, 12, 0)" stroke-width="12.00" stroke-opacity="1.00" stroke-linejoin="round"/>
<path d="M70.68,185.37" fill="none" stroke="rgb(210, 12, 0)" stroke-width="12.00" stroke-opacity="1.00" stroke-linejoin="round"/>
<path d="M70.68,185.37 L375.07,185.83" fill="none" stroke="rgb(210, 12, 0)" stroke-width="12.00" stroke-opacity="1.00" stroke-linejoin="round"/>
<path d="M375.07,185.75" fill="none" stroke="rgb(210, 12, 0)" stroke-width="12.00" stroke-opacity="1.00" stroke-linejoin="round"/>
<path d="M375.07,185.75 L53.01,185.34" fill="none" stroke="rgb(210, 12, 0)" stroke-width="12.00" stroke-opacity="1.00" stroke-linejoin="round"/>
<path d="M53.01,185.34" fill="none" stroke="rgb(210, 12, 0)" stroke-width="12.00" stroke-opacity="1.00" stroke-linejoin="round"/>
<path d="M53.01,185.34 L53.52,178.43" fill="none" stroke="rgb(210, 12, 0)" stroke-width="12.00" stroke-opacity="1.00" stroke-linejoin="round"/>
<path d="M53.52,178.51 C53.52,178.51 53.54,179.00 53.54,179.00" fill="none" stroke="rgb(210, 12, 0)" stroke-width="12.00" stroke-opacity="1.00" stroke-linejoin="round"/>
<path d="M53.54,179.00 L60.74,184.40" fill="none" stroke="rgb(210, 12, 0)" stroke-width="12.00" stroke-opacity="1.00" stroke-linejoin="round"/>
<path d="M60.82,184.37" fill="none" stroke="rgb(210, 12, 0)" stroke-width="12.00" stroke-opacity="1.00" stroke-linejoin="round"/>
<path d="M60.82,184.37 L245.99,183.26" fill="none" stroke="rgb(210, 12, 0)" stroke-width="12.00" stroke-opacity="1.00" stroke-linejoin="round"/>
<path d="M246.13,183.13" fill="none" stroke="rgb(210, 12, 0)" stroke-width="12.00" stroke-opacity="1.00" stroke-linejoin="round"/>
<path d="M246.13,183.13 L45.85,187.60" fill="none" stroke="rgb(210, 12, 0)" stroke-width="12.00" stroke-opacity="1.00" stroke-linejoin="round"/>
<path d="M45.85,187.62" fill="none" stroke="rgb(210, 12, 0)" stroke-width="12.00" stroke-opacity="1.00" stroke-linejoin="round"/>
<path d="M45.85,187.62 L336.10,185.24" fill="none" stroke="rgb(210, 12, 0)" stroke-width="12.00" stroke-opacity="1.00" stroke-linejoin="round"/>
<path d="M336.20,185.24" fill="none" stroke="rgb(210, 12, 0)" stroke-width="12.00" stroke-opacity="1.00" stroke-linejoin="round"/>
<path d="M249.87,180.45 C249.87,180.45 249.47,180.24 249.47,180.24 C250.00,176.43 255.03,171.64 256.25,170.53 C256.25,170.53 246.21,181.29 246.21,181.29 C249.04,180.43 254.38,176.49 257.48,174.21 C260.35,172.15 265.21,168.68 266.44,168.23 C266.44,168.23 257.72,178.41 257.72,178.41 C258.49,178.57 261.85,176.73 265.54,174.54 C268.58,172.73 273.79,169.62 275.51,169.39 C274.48,171.81 271.87,174.83 269.19,177.53 C266.61,180.09 262.18,184.49 259.86,186.60 C260.33,186.29 271.88,177.08 279.07,172.10 C280.58,171.06 282.23,170.19 284.55,169.14 C284.81,170.39 282.75,173.08 279.98,176.14 C277.37,178.99 272.26,184.53 272.56,184.97 C272.56,184.97 291.13,174.40 291.13,174.40 C290.34,176.32 289.63,177.44 288.10,178.90 C284.37,182.49 282.50,184.19 281.49,185.10 C281.49,185.10 299.97,172.88 299.97,172.88 C298.50,176.31 295.47,179.41 293.46,181.45 C292.82,182.10 292.18,182.74 291.53,183.38 C291.53,183.38 311.17,170.50 311.17,170.50 C311.17,170.50 304.11,178.80 304.11,178.80 C306.42,178.65 312.42,175.61 315.89,173.86 C317.89,172.83 318.87,172.51 320.21,172.34 C320.41,173.76 317.82,177.05 313.48,181.88 C313.20,182.20 312.87,182.58 312.49,183.03 C312.84,183.06 320.84,178.69 321.64,178.29 C323.21,177.51 324.15,177.35 324.66,177.61 C324.45,179.17 321.58,183.62 320.38,183.92 C319.71,184.07 318.59,183.48 317.67,182.73" fill="none" stroke="rgb(210, 12, 0)" stroke-width="12.00" stroke-opacity="1.00" stroke-linejoin="round"/>
<path d="M251.90,172.81 C251.90,172.81 252.02,173.16 252.02,173.16 C252.02,173.16 247.32,176.00 247.32,176.00 C246.57,174.38 247.53,172.16 249.43,168.43 C250.13,167.11 250.25,166.57 250.06,166.08 C250.06,166.08 233.39,175.66 233.39,175.66 C233.39,175.66 241.24,166.83 241.24,166.83 C241.24,166.83 229.52,174.98 229.52,174.98 C229.52,174.98 233.68,168.20 233.68,168.20 C233.68,168.20 223.33,173.60 223.33,173.60 C223.33,173.60 222.97,172.42 222.97,172.42" fill="none" stroke="rgb(210, 12, 0)" stroke-width="12.00" stroke-opacity="1.00" stroke-linejoin="round"/>
<path d="M206.85,177.78 C206.96,176.18 208.61,172.33 210.33,170.36 C213.20,167.12 216.84,163.34 220.27,161.01 C222.10,159.81 224.85,158.48 226.45,158.13 C227.50,157.90 234.70,157.15 235.58,156.83 C235.69,156.78 235.32,156.80 235.19,156.81" fill="none" stroke="rgb(210, 12, 0)" stroke-width="12.00" stroke-opacity="1.00" stroke-linejoin="round"/>
<path d="M233.29,156.08 C233.29,156.08 234.12,155.95 234.12,155.95" fill="none" stroke="rgb(210, 12, 0)" stroke-width="12.00" stroke-opacity="1.00" stroke-linejoin="round"/>
<path d="M234.12,155.95 L348.52,155.92" fill="none" stroke="rgb(210, 12, 0)" stroke-width="12.00" stroke-opacity="1.00" stroke-linejoin="round"/>
<path d="M348.56,155.92" fill="none" stroke="rgb(210, 12, 0)" stroke-width="12.00" stroke-opacity="1.00" stroke-linejoin="round"/>
<path d="M348.56,155.92 L348.57,155.92" fill="none" stroke="rgb(210, 12, 0)" stroke-width="12.00" stroke-opacity="1.00" stroke-linejoin="round"/>
<path d="M348.66,155.92" fill="none" stroke="rgb(210, 12, 0)" stroke-width="12.00" stroke-opacity="1.00" stroke-linejoin="round"/>
<path d="M349.89,156.09 C351.70,156.89 354.39,157.83 356.21,158.46 C358.75,159.40 365.40,163.93 365.86,164.37 C367.59,166.07 369.76,172.34 370.69,174.42 C371.97,177.36 372.64,180.77 373.29,185.92 C373.29,185.92 372.99,185.24 372.99,185.24" fill="none" stroke="rgb(210, 12, 0)" stroke-width="12.00" stroke-opacity="1.00" stroke-linejoin="round"/>
<path d="M373.54,185.83 C373.54,185.98 373.54,186.13 373.54,186.28 C373.53,188.62 372.79,192.16 371.69,194.65 C370.62,197.02 366.71,202.98 365.01,204.66 C362.44,207.16 356.03,211.58 354.92,211.94 C354.36,212.12 345.90,213.70 346.02,213.69 C346.02,213.69 346.03,212.88 346.03,212.88" fill="none" stroke="rgb(210, 12, 0)" stroke-width="12.00" stroke-opacity="1.00" stroke-linejoin="round"/>
<path d="M346.03,212.88 L234.03,212.14" fill="none" stroke="rgb(210, 12, 0)" stroke-width="12.00" stroke-opacity="1.00" stroke-linejoin="round"/>
<path d="M234.03,212.13" fill="none" stroke="rgb(210, 12, 0)" stroke-width="12.00" stroke-opacity="1.00" stroke-linejoin="round"/>
<path d="M233.27,212.05 C233.27,212.05 233.39,212.43 233.39,212.43 C232.81,212.35 227.28,211.88 227.08,211.85 C225.91,211.60 221.58,207.43 219.91,206.06 C217.86,204.35 214.78,200.51 212.32,196.56 C211.28,194.89 208.03,187.53 207.92,187.21 C207.41,191.13 207.83,193.71 208.52,195.48 C209.40,197.64 211.25,200.09 213.68,202.86 C216.22,205.67 218.25,207.68 221.22,209.65 C222.99,210.78 225.64,212.13 227.26,212.58 C229.53,213.17 232.70,212.86 234.23,211.93 C234.59,211.70 235.20,211.20 236.05,210.43" fill="none" stroke="rgb(210, 12, 0)" stroke-width="12.00" stroke-opacity="1.00" stroke-linejoin="round"/>
<path d="M215.08,192.65 C215.08,192.65 216.81,192.73 216.81,192.73" fill="none" stroke="rgb(210, 12, 0)" stroke-width="12.00" stroke-opacity="1.00" stroke-linejoin="round"/>
<path d="M216.81,192.73 L365.49,192.13" fill="none" stroke="rgb(210, 12, 0)" stroke-width="12.00" stroke-opacity="1.00" stroke-linejoin="round"/>
<path d="M365.35,192.37 C365.35,192.37 364.97,192.74 364.97,192.74 C364.97,192.74 363.93,192.80 363.93,192.80" fill="none" stroke="rgb(210, 12, 0)" stroke-width="12.00" stroke-opacity="1.00" stroke-linejoin="round"/>
<path d="M363.93,192.80 L349.71,203.09" fill="none" stroke="rgb(210, 12, 0)" stroke-width="12.00" stroke-opacity="1.00" stroke-linejoin="round"/>
<path d="M349.71,203.09 C349.56,203.12 349.44,203.14 349.35,203.13 C349.26,203.13 349.06,203.10 348.76,203.05" fill="none" stroke="rgb(210, 12, 0)" stroke-width="12.00" stroke-opacity="1.00" stroke-linejoin="round"/>
<path d="M348.76,203.05 L224.30,200.43" fill="none" stroke="rgb(210, 12, 0)" stroke-width="12.00" stroke-opacity="1.00" stroke-linejoin="round"/>
<path d="M224.39,200.30 C224.39,200.30 225.24,199.78 225.24,199.78" fill="none" stroke="rgb(210, 12, 0)" stroke-width="12.00" stroke-opacity="1.00" stroke-linejoin="round"/>
<path d="M365.75,178.12 C365.65,178.15 365.53,178.14 365.41,178.11 C364.84,177.95 364.20,177.58 363.97,177.31" fill="none" stroke="rgb(210, 12, 0)" stroke-width="12.00" stroke-opacity="1.00" stroke-linejoin="round"/>
<path d="M363.97,177.31 L352.58,160.81" fill="none" stroke="rgb(210, 12, 0)" stroke-width="12.00" stroke-opacity="1.00" stroke-linejoin="round"/>
<path d="M352.58,160.81 C352.50,161.02 352.44,161.17 352.40,161.28 C352.32,161.49 352.26,161.62 352.21,161.68 C352.16,161.74 352.02,161.87 351.79,162.04" fill="none" stroke="rgb(210, 12, 0)" stroke-width="12.00" stroke-opacity="1.00" stroke-linejoin="round"/>
<path d="M351.79,162.04 L351.44,177.33" fill="none" stroke="rgb(210, 12, 0)" stroke-width="12.00" stroke-opacity="1.00" stroke-linejoin="round"/>
<path d="M351.69,177.37 C351.69,177.37 351.82,176.72 351.82,176.72" fill="none" stroke="rgb(210, 12, 0)" stroke-width="12.00" stroke-opacity="1.00" stroke-linejoin="round"/>
<path d="M351.82,176.72 L335.37,163.38" fill="none" stroke="rgb(210, 12, 0)" stroke-width="12.00" stroke-opacity="1.00" stroke-linejoin="round"/>
<path d="M335.37,163.38 C335.35,163.64 335.36,163.83 335.41,163.94 C335.52,164.19 335.75,164.38 335.91,164.60 C335.99,164.71 336.09,164.88 336.21,165.12" fill="none" stroke="rgb(210, 12, 0)" stroke-width="12.00" stroke-opacity="1.00" stroke-linejoin="round"/>
<path d="M336.21,165.12 L338.03,179.29" fill="none" stroke="rgb(210, 12, 0)" stroke-width="12.00" stroke-opacity="1.00" stroke-linejoin="round"/>
<path d="M338.03,179.29 C337.84,179.31 337.68,179.31 337.53,179.29 C337.06,179.19 336.25,178.86 336.02,178.70" fill="none" stroke="rgb(210, 12, 0)" stroke-width="12.00" stroke-opacity="1.00" stroke-linejoin="round"/>
<path d="M336.02,178.70 L315.03,171.30" fill="none" stroke="rgb(210, 12, 0)" stroke-width="12.00" stroke-opacity="1.00" stroke-linejoin="round"/>
<path d="M315.03,171.30 C315.07,171.71 315.11,171.96 315.13,172.04 C315.17,172.22 315.28,172.34 315.47,172.40 C315.60,172.44 315.98,172.52 316.60,172.63" fill="none" stroke="rgb(210, 12, 0)" stroke-width="12.00" stroke-opacity="1.00" stroke-linejoin="round"/>
<path d="M357.04,177.34 C355.83,177.64 355.02,177.84 354.60,177.94 C353.71,178.13 349.97,178.70 348.68,178.86 C345.38,179.20 341.23,179.64 338.64,180.02 C339.15,180.74 345.13,181.19 347.71,180.90 C351.35,180.47 353.59,179.29 354.32,178.64 C354.31,177.61 350.10,175.47 347.51,174.20 C344.22,172.48 340.05,168.76 339.18,166.50 C338.41,164.36 338.99,162.89 339.48,162.34 C340.59,161.61 343.97,163.67 348.94,167.78 C349.02,167.85 349.25,168.05 349.20,167.96 C346.90,165.86 342.20,163.67 338.58,163.26 C335.94,162.99 329.13,163.39 326.86,163.81 C326.86,163.81 334.22,166.32 334.22,166.32 C333.05,164.69 328.95,163.23 326.45,162.57 C320.35,160.98 305.63,160.23 299.27,160.94 C296.79,161.22 293.07,161.90 289.61,162.85 C304.41,165.73 313.58,164.93 315.28,164.69 C313.22,163.44 307.38,162.71 302.89,162.50 C299.70,162.35 280.75,162.22 273.39,162.21 C264.37,162.41 261.00,163.35 259.81,163.86 C259.83,164.69 263.59,165.81 270.59,167.54 C275.16,168.64 280.62,169.53 284.61,169.89 C287.65,170.14 292.13,170.12 294.83,169.35 C294.83,169.35 294.78,168.32 294.78,168.32 C290.47,166.33 277.88,164.64 271.09,164.19 C258.12,163.55 228.95,164.31 222.38,165.69 C220.58,166.09 219.27,166.82 218.62,167.75 C218.33,168.20 214.37,173.84 214.05,174.63 C213.87,175.12 213.18,178.92 212.98,179.62 C212.89,179.93 212.72,180.33 212.48,180.82" fill="none" stroke="rgb(210, 12, 0)" stroke-width="12.00" stroke-opacity="1.00" stroke-linejoin="round"/>
<path d="M243.90,134.48" fill="none" stroke="rgb(210, 12, 0)" stroke-width="12.00" stroke-opacity="1.00" stroke-linejoin="round"/>
<path d="M243.90,134.48 L337.38,135.04" fill="none" stroke="rgb(210, 12, 0)" stroke-width="12.00" stroke-opacity="1.00" stroke-linejoin="round"/>
<path d="M337.32,135.09" fill="none" stroke="rgb(210, 12, 0)" stroke-width="12.00" stroke-opacity="1.00" stroke-linejoin="round"/>
<path d="M125.27,232.48" fill="none" stroke="rgb(210, 12, 0)" stroke-width="12.00" stroke-opacity="1.00" stroke-linejoin="round"/>
<path d="M125.27,232.48 L468.61,233.59" fill="none" stroke="rgb(210, 12, 0)" stroke-width="12.00" stroke-opacity="1.00" stroke-linejoin="round"/>
<path d="M468.67,233.77 C472.04,236.68 473.99,238.80 473.88,238.68 C473.80,238.61 473.59,238.36 473.23,237.95" fill="none" stroke="rgb(210, 12, 0)" stroke-width="12.00" stroke-opacity="1.00" stroke-linejoin="round"/>
<path d="M469.72,233.11 C471.87,234.83 475.99,240.83 476.68,241.86 C477.78,243.55 478.06,252.54 477.90,253.64 C477.79,254.28 467.78,274.29 467.12,275.70 C465.64,278.85 461.73,288.28 460.89,289.28 C460.34,289.93 448.89,301.54 445.96,303.63 C444.91,304.36 428.08,311.65 426.19,312.42 C415.03,316.55 402.51,317.39 402.38,317.37 C401.10,317.16 399.82,316.96 398.54,316.75" fill="none" stroke="rgb(210, 12, 0)" stroke-width="12.00" stroke-opacity="1.00" stroke-linejoin="round"/>
<path d="M398.54,316.75 L182.86,315.39" fill="none" stroke="rgb(210, 12, 0)" stroke-width="12.00" stroke-opacity="1.00" stroke-linejoin="round"/>
<path d="M182.68,315.42" fill="none" stroke="rgb(210, 12, 0)" stroke-width="12.00" stroke-opacity="1.00" stroke-linejoin="round"/>
<path d="M181.20,315.46 C181.20,315.46 181.20,315.45 181.20,315.45 C175.35,315.47 172.58,315.31 169.91,314.69 C166.95,313.94 154.28,308.79 148.63,306.58 C141.25,303.51 131.08,296.27 125.21,290.86 C119.96,286.04 110.21,278.53 109.64,277.89 C108.32,276.43 105.57,272.44 104.70,270.35 C103.71,267.88 102.49,263.11 102.01,261.58 C101.12,258.66 101.44,253.89 102.18,250.96 C102.65,249.17 104.58,244.78 105.76,243.29 C107.19,241.54 111.52,238.03 114.71,236.83 C122.06,234.13 134.05,233.03 134.82,233.08 C134.82,233.08 134.40,234.54 134.40,234.54" fill="none" stroke="rgb(210, 12, 0)" stroke-width="12.00" stroke-opacity="1.00" stroke-linejoin="round"/>
<path d="M127.02,243.24 C127.14,243.24 127.27,243.24 127.39,243.24 C127.96,243.24 128.54,243.24 129.11,243.24" fill="none" stroke="rgb(210, 12, 0)" stroke-width="12.00" stroke-opacity="1.00" stroke-linejoin="round"/>
<path d="M129.11,243.24 L468.10,243.66" fill="none" stroke="rgb(210, 12, 0)" stroke-width="12.00" stroke-opacity="1.00" stroke-linejoin="round"/>
<path d="M468.10,243.66 C468.10,243.66 467.75,243.89 467.75,243.89 C467.75,243.89 467.15,243.85 467.15,243.85" fill="none" stroke="rgb(210, 12, 0)" stroke-width="12.00" stroke-opacity="1.00" stroke-linejoin="round"/>
<path d="M467.15,243.85 L126.50,251.35" fill="none" stroke="rgb(210, 12, 0)" stroke-width="12.00" stroke-opacity="1.00" stroke-linejoin="round"/>
<path d="M126.69,251.29 C126.69,251.29 127.07,250.72 127.07,250.72" fill="none" stroke="rgb(210, 12, 0)" stroke-width="12.00" stroke-opacity="1.00" stroke-linejoin="round"/>
<path d="M127.07,250.72 L470.57,252.98" fill="none" stroke="rgb(210, 12, 0)" stroke-width="12.00" stroke-opacity="1.00" stroke-linejoin="round"/>
<path d="M470.57,252.98 C470.57,252.98 470.27,253.27 470.27,253.27" fill="none" stroke="rgb(210, 12, 0)" stroke-width="12.00" stroke-opacity="1.00" stroke-linejoin="round"/>
<path d="M470.27,253.27 L126.66,258.30" fill="none" stroke="rgb(210, 12, 0)" stroke-width="12.00" stroke-opacity="1.00" stroke-linejoin="round"/>
<path d="M126.55,258.37" fill="none" stroke="rgb(210, 12, 0)" stroke-width="12.00" stroke-opacity="1.00" stroke-linejoin="round"/>
<path d="M121.58,243.91 C119.65,244.09 118.49,244.52 117.21,245.73 C112.92,249.81 107.24,255.19 106.54,255.68 C106.54,255.68 116.24,240.92 116.24,240.92 C116.24,240.92 107.38,260.44 107.38,260.44 C108.72,260.07 109.80,259.40 110.91,258.09 C111.29,257.64 115.62,252.18 116.75,250.80 C116.75,250.80 112.78,263.02 112.78,263.02 C115.29,261.28 119.39,253.96 120.42,252.07 C120.42,252.07 116.79,269.58 116.79,269.58 C116.79,269.58 120.90,255.85 120.90,255.85 C119.35,257.36 117.62,262.37 117.31,265.51 C116.98,269.26 117.72,271.36 118.37,272.28 C118.37,272.28 119.49,272.48 119.49,272.48 C120.93,271.33 122.24,267.15 122.57,263.66 C122.75,261.48 122.79,260.41 122.75,258.88 C121.25,263.31 120.97,275.67 121.66,277.33 C122.71,276.68 123.28,275.77 123.75,273.67 C124.91,268.43 126.82,258.43 126.75,257.97 C126.30,258.27 124.24,263.22 123.70,265.87 C122.36,272.53 123.26,279.84 124.24,280.98 C125.55,280.04 126.26,278.97 126.76,276.90 C128.06,271.44 130.07,260.24 130.07,260.25 C128.62,268.61 127.62,281.40 128.53,284.38 C129.60,283.38 130.12,282.59 130.34,281.28 C131.51,274.46 132.42,263.29 132.14,261.65 C131.26,262.57 130.40,267.87 130.20,271.71 C130.04,275.06 130.07,280.80 130.60,281.58 C131.02,278.32 131.32,272.96 131.47,270.12 C131.51,269.50 131.55,268.89 131.58,268.27" fill="none" stroke="rgb(210, 12, 0)" stroke-width="12.00" stroke-opacity="1.00" stroke-linejoin="round"/>
<path d="M134.21,266.61 C134.21,266.61 137.99,260.53 137.99,260.53 C136.67,263.65 131.72,268.74 128.87,270.73 C128.87,270.73 127.71,270.23 127.71,270.23 C126.76,265.99 125.18,263.17 123.55,262.73 C121.84,262.34 118.60,264.46 117.35,266.57 C116.37,268.27 115.81,272.65 115.83,273.47 C115.83,273.47 111.53,265.84 111.53,265.84 C111.53,265.84 111.50,267.49 111.50,267.49 C111.50,267.49 109.60,260.08 109.60,260.08" fill="none" stroke="rgb(210, 12, 0)" stroke-width="12.00" stroke-opacity="1.00" stroke-linejoin="round"/>
<path d="M159.89,258.72 C159.89,258.72 160.00,259.48 160.00,259.48 C160.11,259.64 166.43,263.17 168.29,264.86 C171.39,267.76 174.05,272.18 174.38,275.62 C174.58,278.10 172.45,287.86 172.17,289.22 C172.17,289.22 172.10,287.00 172.10,287.00" fill="none" stroke="rgb(210, 12, 0)" stroke-width="12.00" stroke-opacity="1.00" stroke-linejoin="round"/>
<path d="M167.34,261.79 C167.28,262.27 167.30,262.64 167.40,262.89 C168.40,264.81 170.48,269.51 171.37,272.31 C172.24,275.10 172.46,282.44 172.45,283.67 C172.41,286.21 171.22,289.74 169.84,292.93 C167.62,297.99 164.09,301.82 163.58,302.01 C163.58,302.01 161.51,301.17 161.51,301.17" fill="none" stroke="rgb(210, 12, 0)" stroke-width="12.00" stroke-opacity="1.00" stroke-linejoin="round"/>
<path d="M133.49,286.55 C132.94,286.07 132.56,285.77 132.36,285.66 C132.15,285.55 131.85,285.48 131.44,285.44" fill="none" stroke="rgb(210, 12, 0)" stroke-width="12.00" stroke-opacity="1.00" stroke-linejoin="round"/>
<path d="M132.23,285.99 C132.23,285.99 131.04,285.65 131.04,285.65 C132.21,286.97 133.58,288.76 134.13,289.34 C135.53,290.83 141.39,295.80 143.64,297.32 C147.43,299.86 149.22,300.77 151.78,300.87 C154.28,300.89 158.00,300.08 160.24,299.14 C160.47,299.04 160.81,298.87 161.29,298.63" fill="none" stroke="rgb(210, 12, 0)" stroke-width="12.00" stroke-opacity="1.00" stroke-linejoin="round"/>
<path d="M167.78,294.00 C167.78,294.00 167.73,294.40 167.73,294.40 C165.52,296.46 161.68,298.40 159.79,298.75 C158.49,298.97 153.12,298.98 150.85,298.59 C149.74,298.39 148.16,297.99 146.03,297.40" fill="none" stroke="rgb(210, 12, 0)" stroke-width="12.00" stroke-opacity="1.00" stroke-linejoin="round"/>
<path d="M132.73,281.66 C132.73,281.66 132.73,282.97 132.73,282.97 C132.88,280.21 134.55,273.63 134.84,272.77 C135.43,271.13 138.55,267.31 141.97,265.40 C143.30,264.67 154.05,262.46 154.32,262.42 C156.85,261.98 162.07,261.96 163.32,262.25 C165.41,262.78 170.14,267.20 171.47,270.05 C171.92,271.06 172.58,273.27 172.95,274.72" fill="none" stroke="rgb(210, 12, 0)" stroke-width="12.00" stroke-opacity="1.00" stroke-linejoin="round"/>
<path d="M156.07,277.49 C155.76,277.26 153.66,276.84 152.37,276.82 C151.34,276.82 150.46,281.16 151.14,283.03 C151.61,284.19 153.25,285.46 154.44,285.58 C155.53,285.66 157.23,285.15 158.26,284.52 C159.05,283.97 159.61,282.84 159.72,281.49 C159.81,279.91 159.32,277.84 158.53,276.67 C157.83,275.70 155.80,273.92 154.82,273.44 C153.88,273.00 151.06,272.89 149.51,273.11 C148.22,273.34 147.41,277.16 147.96,279.02 C148.22,279.84 149.38,281.51 150.16,282.27 C150.89,282.94 153.19,283.97 154.51,284.18 C155.95,284.38 157.58,283.91 158.08,283.22 C158.52,282.50 159.48,280.63 159.61,279.80 C159.89,277.67 159.53,275.30 158.68,274.02 C157.01,271.61 155.01,270.56 153.04,270.74 C151.20,270.98 148.08,273.47 147.89,274.76 C147.81,275.43 147.79,278.10 147.86,278.87 C147.97,279.79 149.26,282.22 150.24,283.20 C151.62,284.55 153.95,285.26 156.59,285.36 C157.64,285.36 158.57,284.97 158.97,284.42 C159.47,283.64 159.75,282.29 159.87,280.30 C159.92,278.50 159.47,276.91 158.42,275.70 C156.35,273.38 151.63,271.32 149.68,271.54 C148.80,271.68 146.72,273.22 145.34,274.67 C144.39,275.71 144.13,280.26 145.12,281.99 C146.29,283.91 150.11,286.18 153.01,286.33 C155.24,286.40 156.53,286.36 157.45,286.16 C158.55,285.88 159.95,284.69 160.33,283.58 C160.62,282.65 160.82,278.88 160.63,277.81 C160.14,275.32 155.99,270.83 153.92,270.07 C152.01,269.42 147.89,270.18 146.78,271.15 C145.73,272.14 145.26,277.19 146.20,279.35 C147.18,281.49 150.64,285.08 152.67,286.26 C153.70,286.83 155.68,287.36 156.59,287.23 C157.75,287.01 159.53,285.56 160.60,283.97 C161.52,282.54 162.56,279.94 162.77,278.48 C162.97,276.70 162.32,274.04 161.27,272.66 C160.33,271.49 157.31,269.37 155.97,268.89 C154.72,268.48 151.90,268.51 150.88,268.94 C149.50,269.58 145.85,273.97 145.59,275.35 C145.17,278.06 146.89,282.76 149.11,285.55 C151.03,287.87 154.58,289.90 157.16,289.91 C158.58,289.86 160.15,289.09 160.80,287.97 C161.41,286.82 161.96,283.40 161.83,281.68 C161.66,279.98 160.45,277.11 159.30,275.77 C157.92,274.23 155.05,272.40 153.52,272.10 C152.14,271.88 150.29,272.47 148.93,273.42 C147.95,274.15 146.38,275.65 146.03,276.28 C145.64,277.07 145.29,279.74 145.39,281.06 C145.54,282.53 146.41,284.67 147.39,286.02 C148.33,287.22 150.26,288.80 151.37,289.07 C154.05,289.68 157.96,288.40 159.24,287.43 C160.32,286.57 161.67,283.79 161.26,280.45 C160.82,277.24 154.56,271.23 153.33,270.72 C151.68,270.10 149.19,270.12 147.97,270.85 C147.15,271.38 145.55,273.46 145.14,274.50 C144.63,275.88 144.46,279.08 144.77,280.64 C145.06,281.97 148.13,285.88 149.94,287.23 C152.11,288.78 156.83,289.77 158.12,289.09 C158.63,288.77 159.97,287.66 160.35,286.98 C161.33,285.14 162.04,282.04 162.06,279.59 C162.05,277.69 159.91,274.32 157.75,272.62 C155.52,270.92 151.59,269.32 149.86,269.38 C149.18,269.44 147.57,269.95 146.96,270.45 C145.67,271.58 144.20,274.00 143.91,275.84 C143.65,277.65 143.87,280.69 144.31,281.68 C145.38,283.87 148.53,286.60 150.72,287.05 C153.04,287.46 157.16,286.47 159.05,285.00 C159.89,284.33 160.95,283.01 161.40,282.09 C161.76,281.32 161.92,278.39 161.73,276.78 C161.50,275.15 158.61,272.10 156.30,270.92 C154.87,270.24 152.48,269.55 151.28,269.64 C149.07,269.85 146.46,274.44 145.63,276.18 C145.52,276.43 145.45,276.57 145.43,276.62" fill="none" stroke="rgb(255, 255, 255)" stroke-width="15.00" stroke-opacity="1.00" stroke-linejoin="round"/>
<path d="M135.22,270.16 C135.68,269.16 137.58,266.64 138.12,266.06 C138.48,265.66 139.13,265.11 139.16,265.06 C139.21,264.98 139.21,264.81 139.19,264.57" fill="none" stroke="rgb(210, 12, 0)" stroke-width="12.00" stroke-opacity="1.00" stroke-linejoin="round"/>
<path d="M136.80,268.58 C136.79,268.59 136.83,268.57 136.84,268.56 C139.42,265.61 140.74,264.25 141.42,263.74 C142.22,263.17 150.65,260.32 151.94,260.16 C154.15,259.89 159.83,261.13 162.55,262.76 C164.73,264.09 166.62,266.16 169.00,268.75 C170.02,269.89 172.11,274.34 172.53,275.96 C172.92,277.60 173.10,280.99 172.81,282.83 C172.57,284.29 170.72,291.16 170.24,292.28 C168.95,295.26 165.45,297.68 165.04,297.98" fill="none" stroke="rgb(210, 12, 0)" stroke-width="12.00" stroke-opacity="1.00" stroke-linejoin="round"/>
<path d="M158.50,299.44 C159.41,299.45 160.22,299.38 160.60,299.18 C163.65,297.55 170.09,291.70 170.45,290.69 C170.49,290.57 170.38,290.47 170.13,290.41" fill="none" stroke="rgb(210, 12, 0)" stroke-width="12.00" stroke-opacity="1.00" stroke-linejoin="round"/>
<path d="M135.59,266.88 C134.95,268.43 134.30,271.90 134.17,272.30 C134.14,272.41 134.07,272.53 133.98,272.67" fill="none" stroke="rgb(210, 12, 0)" stroke-width="12.00" stroke-opacity="1.00" stroke-linejoin="round"/>
<path d="M136.54,266.91 C136.53,267.06 136.20,268.12 135.94,268.92 C135.28,271.48 134.41,274.78 134.08,279.24 C133.95,281.92 135.39,286.45 135.94,288.64 C136.14,289.13 143.06,296.47 145.24,297.88 C146.49,298.67 149.98,299.72 151.84,299.82 C154.26,299.93 159.48,298.56 161.18,298.40 C161.84,298.34 162.72,298.14 163.20,298.02 C163.31,297.99 163.44,297.98 163.59,297.98" fill="none" stroke="rgb(210, 12, 0)" stroke-width="12.00" stroke-opacity="1.00" stroke-linejoin="round"/>
<path d="M194.26,259.66 C192.65,260.86 191.44,261.81 189.73,263.23 C182.93,269.00 182.12,269.50 181.87,269.65 C181.87,269.65 188.36,259.13 188.36,259.13 C188.36,259.13 180.24,265.15 180.24,265.15 C180.24,265.15 184.48,259.29 184.48,259.29 C184.48,259.29 180.86,265.15 180.86,265.15 C182.51,263.45 184.48,263.17 185.31,263.46 C185.39,263.49 185.58,263.57 185.87,263.68" fill="none" stroke="rgb(210, 12, 0)" stroke-width="12.00" stroke-opacity="1.00" stroke-linejoin="round"/>
<path d="M191.85,265.88 C190.43,267.23 184.92,274.96 184.35,277.55 C183.89,279.79 183.34,287.75 184.51,291.04 C184.87,292.01 185.82,295.37 186.86,297.96 C187.28,299.00 189.51,301.99 190.87,303.43 C192.69,305.33 200.34,309.01 201.57,309.58 C205.01,311.18 213.27,311.93 213.05,312.39 C213.02,312.44 212.83,312.60 212.49,312.87" fill="none" stroke="rgb(210, 12, 0)" stroke-width="12.00" stroke-opacity="1.00" stroke-linejoin="round"/>
<path d="M180.48,296.56 C180.48,296.56 178.48,293.93 178.48,293.93 C177.63,295.09 179.69,304.37 180.03,305.10 C180.03,305.10 178.85,294.77 178.85,294.77 C178.38,302.87 185.11,307.63 185.85,307.71 C186.15,306.97 186.12,306.48 185.62,306.09 C184.60,305.36 179.78,303.99 176.00,303.31 C173.60,302.90 171.97,304.50 169.06,305.62 C168.39,305.87 167.84,306.02 167.52,306.06 C167.52,306.06 171.87,309.13 171.87,309.13 C171.87,309.13 171.69,309.37 171.69,309.37 C171.69,309.37 171.31,309.37 171.31,309.37" fill="none" stroke="rgb(210, 12, 0)" stroke-width="12.00" stroke-opacity="1.00" stroke-linejoin="round"/>
<path d="M190.03,266.05 C190.03,266.05 194.93,263.03 194.93,263.03" fill="none" stroke="rgb(210, 12, 0)" stroke-width="12.00" stroke-opacity="1.00" stroke-linejoin="round"/>
<path d="M190.90,267.26 C192.82,265.63 196.25,263.59 199.32,262.07 C201.15,261.24 205.13,259.95 207.03,259.81 C208.98,259.70 218.27,261.37 223.18,263.12 C224.10,263.46 226.92,265.59 227.54,266.33 C229.49,268.67 232.25,272.73 232.63,273.69 C233.88,276.90 235.85,283.96 235.85,285.74 C235.84,287.31 235.34,290.66 234.32,295.06 C233.67,297.39 229.94,303.62 227.63,305.72 C226.39,306.83 219.60,310.42 217.56,311.56 C217.70,311.56 233.08,309.34 233.96,309.68 C234.24,309.80 234.88,310.28 235.13,310.54 C235.21,310.63 235.30,310.75 235.39,310.90" fill="none" stroke="rgb(210, 12, 0)" stroke-width="12.00" stroke-opacity="1.00" stroke-linejoin="round"/>
<path d="M238.20,304.90 C237.95,304.89 237.74,304.85 237.57,304.77 C237.00,304.52 235.31,303.05 234.80,302.72 C234.48,302.53 238.56,306.37 239.79,307.19 C241.09,308.05 241.61,308.07 242.17,308.02 C242.44,306.58 240.89,304.63 239.78,303.71 C239.40,303.41 238.27,302.58 238.29,302.57 C238.29,302.57 246.71,306.96 246.71,306.96 C246.71,306.96 242.99,303.93 242.99,303.93 C242.99,303.93 250.10,310.05 250.10,310.05 C249.28,309.60 247.92,308.85 247.74,308.71 C247.68,308.66 247.61,308.59 247.52,308.48" fill="none" stroke="rgb(210, 12, 0)" stroke-width="12.00" stroke-opacity="1.00" stroke-linejoin="round"/>
<path d="M236.99,262.99 C236.83,263.37 236.68,263.73 236.55,264.07 C235.75,266.12 235.07,267.54 234.84,267.63 C233.46,267.99 237.74,261.25 238.38,261.29 C238.38,261.29 237.94,268.47 237.94,268.47 C237.94,268.47 247.28,260.84 247.28,260.84 C247.28,260.84 245.65,264.55 245.65,264.55 C245.65,264.55 251.56,259.37 251.56,259.37 C251.56,259.37 249.28,260.79 249.28,260.79" fill="none" stroke="rgb(210, 12, 0)" stroke-width="12.00" stroke-opacity="1.00" stroke-linejoin="round"/>
<path d="M253.90,260.09 C253.79,260.21 253.68,260.32 253.57,260.41 C247.97,264.94 245.50,267.55 245.51,267.53 C245.51,267.53 247.89,264.83 247.89,264.83 C247.89,264.83 241.91,269.90 241.91,269.90 C241.91,269.90 243.22,268.76 243.22,268.76" fill="none" stroke="rgb(210, 12, 0)" stroke-width="12.00" stroke-opacity="1.00" stroke-linejoin="round"/>
<path d="M255.69,260.41 C255.17,260.62 253.52,262.37 252.63,263.22 C248.97,266.77 247.78,267.83 246.63,269.38 C244.97,271.63 243.05,275.93 242.69,277.51 C241.75,281.73 241.09,293.23 241.77,295.35 C241.84,295.58 243.94,301.03 244.32,301.79 C245.52,304.09 252.61,310.01 254.05,310.51 C255.93,311.09 259.66,312.53 260.38,312.74 C260.58,312.80 260.81,312.86 261.10,312.92" fill="none" stroke="rgb(210, 12, 0)" stroke-width="12.00" stroke-opacity="1.00" stroke-linejoin="round"/>
<path d="M249.19,263.60 C249.19,263.60 257.70,261.00 257.70,261.00" fill="none" stroke="rgb(210, 12, 0)" stroke-width="12.00" stroke-opacity="1.00" stroke-linejoin="round"/>
<path d="M252.53,263.48 C253.09,263.25 254.22,262.94 254.64,262.81 C256.94,262.05 265.12,259.55 265.78,259.47 C269.13,259.08 272.85,259.10 277.31,259.67 C277.31,259.67 276.38,259.51 276.38,259.51" fill="none" stroke="rgb(210, 12, 0)" stroke-width="12.00" stroke-opacity="1.00" stroke-linejoin="round"/>
<path d="M265.59,259.32 C266.45,259.34 278.50,261.10 278.75,261.21 C279.45,261.52 285.31,265.23 285.44,265.41" fill="none" stroke="rgb(210, 12, 0)" stroke-width="12.00" stroke-opacity="1.00" stroke-linejoin="round"/>
<path d="M282.83,262.64 C283.09,262.90 285.72,264.86 286.35,265.77 C287.28,267.14 289.49,271.55 289.86,272.39 C289.86,272.39 289.76,271.96 289.76,271.96" fill="none" stroke="rgb(210, 12, 0)" stroke-width="12.00" stroke-opacity="1.00" stroke-linejoin="round"/>
<path d="M278.14,261.91 C278.52,262.14 280.26,262.73 282.57,264.19 C284.15,265.20 292.43,273.70 292.90,274.29 C294.13,275.86 294.51,277.75 294.52,277.98 C294.52,277.98 293.51,276.85 293.51,276.85" fill="none" stroke="rgb(210, 12, 0)" stroke-width="12.00" stroke-opacity="1.00" stroke-linejoin="round"/>
<path d="M265.55,313.96 C265.78,313.98 266.82,313.97 268.91,313.91 C270.61,313.86 274.58,313.49 277.48,312.38 C281.57,310.79 285.38,307.44 287.22,305.03 C287.49,304.67 292.69,297.38 293.35,295.59 C294.15,293.21 294.14,286.45 293.81,285.42 C293.74,285.23 293.60,284.83 293.36,284.22" fill="none" stroke="rgb(210, 12, 0)" stroke-width="12.00" stroke-opacity="1.00" stroke-linejoin="round"/>
<path d="M291.02,275.75 C291.44,276.75 292.17,278.53 292.35,279.26 C292.39,279.43 292.41,279.58 292.40,279.71" fill="none" stroke="rgb(210, 12, 0)" stroke-width="12.00" stroke-opacity="1.00" stroke-linejoin="round"/>
<path d="M292.56,279.66 C292.59,279.73 292.86,281.68 293.00,282.94 C293.11,283.89 293.17,285.78 293.17,286.88 C293.16,287.75 293.11,288.74 293.06,289.26" fill="none" stroke="rgb(210, 12, 0)" stroke-width="12.00" stroke-opacity="1.00" stroke-linejoin="round"/>
<path d="M294.05,260.26 C294.05,260.26 292.59,263.26 292.59,263.26 C292.59,263.26 296.06,258.09 296.06,258.09 C296.06,258.09 293.45,265.75 293.45,265.75 C293.45,265.75 299.25,261.40 299.25,261.40 C299.25,261.40 296.51,267.09 296.51,267.09 C296.51,267.09 303.89,260.58 303.89,260.58 C303.89,260.58 300.06,266.07 300.06,266.07 C300.06,266.07 306.16,261.05 306.16,261.05 C306.16,261.05 299.39,269.17 299.39,269.17 C299.12,269.56 297.84,272.06 297.74,272.22 C297.70,272.28 297.59,272.36 297.41,272.45" fill="none" stroke="rgb(210, 12, 0)" stroke-width="12.00" stroke-opacity="1.00" stroke-linejoin="round"/>
<path d="M305.40,263.68 C306.19,263.09 314.28,259.96 316.69,259.36 C319.87,258.58 324.54,258.08 324.93,257.89 C324.93,257.89 325.06,257.53 325.06,257.53" fill="none" stroke="rgb(210, 12, 0)" stroke-width="12.00" stroke-opacity="1.00" stroke-linejoin="round"/>
<path d="M319.03,258.68 C320.20,259.23 328.11,258.94 330.12,259.12 C339.38,259.99 348.03,265.01 348.51,265.87" fill="none" stroke="rgb(210, 12, 0)" stroke-width="12.00" stroke-opacity="1.00" stroke-linejoin="round"/>
<path d="M351.60,264.10 C351.59,264.35 352.26,267.56 352.32,269.65 C352.33,270.15 352.34,270.43 352.33,270.49 C352.32,270.58 352.28,270.69 352.20,270.82" fill="none" stroke="rgb(210, 12, 0)" stroke-width="12.00" stroke-opacity="1.00" stroke-linejoin="round"/>
<path d="M349.38,267.24 C349.33,267.56 349.34,267.74 349.48,267.98 C349.77,268.50 351.22,280.79 351.02,292.47 C350.91,296.65 350.89,308.87 350.85,308.96 C350.85,308.96 349.89,309.18 349.89,309.18" fill="none" stroke="rgb(210, 12, 0)" stroke-width="12.00" stroke-opacity="1.00" stroke-linejoin="round"/>
<path d="M291.73,305.53 C291.62,305.33 291.45,304.83 291.49,304.59 C291.50,304.49 291.57,304.32 291.70,304.09 C291.70,304.09 294.87,309.59 294.87,309.59 C294.87,309.59 294.07,303.80 294.07,303.80 C294.07,303.80 297.87,310.12 297.87,310.12 C298.58,308.53 295.99,302.29 295.95,302.24 C295.95,302.24 299.01,308.88 299.01,308.88 C299.01,308.88 296.62,305.94 296.62,305.94" fill="none" stroke="rgb(210, 12, 0)" stroke-width="12.00" stroke-opacity="1.00" stroke-linejoin="round"/>
<path d="M293.19,292.52 C293.48,293.47 293.70,294.52 293.84,295.73 C293.87,296.00 293.91,296.51 293.98,297.25" fill="none" stroke="rgb(210, 12, 0)" stroke-width="12.00" stroke-opacity="1.00" stroke-linejoin="round"/>
<path d="M297.38,294.57 C297.55,295.03 298.01,295.82 298.34,296.38 C298.97,297.54 299.99,301.20 300.01,301.24 C300.41,301.91 306.49,309.02 308.60,310.05 C309.85,310.65 313.06,312.55 315.29,313.07 C317.04,313.46 329.26,313.89 332.86,313.19 C335.67,312.63 344.16,307.49 346.82,304.72 C348.26,303.20 349.86,301.52 350.14,301.02" fill="none" stroke="rgb(210, 12, 0)" stroke-width="12.00" stroke-opacity="1.00" stroke-linejoin="round"/>
<path d="M349.33,295.00 C349.44,295.60 349.28,297.17 348.92,298.30 C348.73,298.88 345.47,303.79 342.80,306.02 C341.35,307.21 338.76,308.90 337.55,309.83 C336.98,310.26 332.57,311.98 330.72,312.60 C330.54,312.66 330.27,312.77 329.90,312.93" fill="none" stroke="rgb(210, 12, 0)" stroke-width="12.00" stroke-opacity="1.00" stroke-linejoin="round"/>
<path d="M335.15,258.50 C335.67,259.41 336.05,260.02 336.56,260.56 C337.86,261.93 340.35,263.90 341.02,264.43 C341.36,264.70 342.20,265.53 342.31,265.62" fill="none" stroke="rgb(210, 12, 0)" stroke-width="12.00" stroke-opacity="1.00" stroke-linejoin="round"/>
<path d="M338.17,261.62 C338.38,261.88 342.72,265.61 344.21,267.71 C344.50,268.13 346.85,271.71 347.08,272.06 C348.80,274.61 349.27,277.32 349.49,277.75 C349.49,277.75 349.19,276.76 349.19,276.76" fill="none" stroke="rgb(210, 12, 0)" stroke-width="12.00" stroke-opacity="1.00" stroke-linejoin="round"/>
<path d="M296.02,287.79" fill="none" stroke="rgb(210, 12, 0)" stroke-width="12.00" stroke-opacity="1.00" stroke-linejoin="round"/>
<path d="M296.00,288.05 C296.06,287.27 295.72,283.74 295.97,282.76 C296.35,281.28 296.57,278.21 297.00,277.02 C297.92,274.57 301.18,269.80 301.63,268.85 C301.70,268.70 301.85,268.36 302.08,267.83" fill="none" stroke="rgb(210, 12, 0)" stroke-width="12.00" stroke-opacity="1.00" stroke-linejoin="round"/>
<path d="M296.16,279.33 C296.16,279.33 296.13,280.69 296.13,280.69 C296.05,279.20 300.53,272.48 303.73,268.70 C305.48,266.64 308.73,263.83 310.05,263.04 C312.03,261.92 323.59,259.26 328.01,259.57 C331.67,259.87 338.16,263.83 338.47,264.03 C340.21,265.23 345.62,268.83 345.76,268.95 C346.14,269.29 346.73,270.30 346.83,270.68 C346.85,270.75 346.94,271.14 347.09,271.84" fill="none" stroke="rgb(210, 12, 0)" stroke-width="12.00" stroke-opacity="1.00" stroke-linejoin="round"/>
<path d="M358.32,258.48 C357.58,259.39 356.71,260.67 356.47,261.26 C356.41,261.41 356.42,261.51 356.51,261.56 C356.51,261.56 365.77,255.50 365.77,255.50 C365.77,255.50 355.22,266.54 355.22,266.54 C355.22,266.54 363.02,258.75 363.02,258.75 C363.02,258.75 354.87,268.45 354.87,268.45 C354.87,268.45 363.49,260.20 363.49,260.20 C363.00,260.82 355.45,269.69 355.35,269.77 C355.33,269.79 355.22,269.87 355.02,270.01" fill="none" stroke="rgb(210, 12, 0)" stroke-width="12.00" stroke-opacity="1.00" stroke-linejoin="round"/>
<path d="M360.39,267.93 C360.39,267.93 365.95,261.67 365.95,261.67 C365.95,261.67 361.52,265.71 361.52,265.71 C361.84,265.36 363.30,263.83 364.38,262.69 C365.11,261.93 365.89,261.17 366.56,260.54" fill="none" stroke="rgb(210, 12, 0)" stroke-width="12.00" stroke-opacity="1.00" stroke-linejoin="round"/>
<path d="M363.35,265.06 C363.72,264.97 369.67,261.12 372.44,260.61 C374.40,260.31 383.23,259.24 385.15,259.55 C387.53,259.97 391.42,261.41 393.45,262.29 C395.28,263.09 397.22,264.80 398.05,265.79 C401.77,270.25 402.85,272.92 404.47,277.71 C406.13,282.17 405.91,288.65 405.16,293.36 C404.64,296.60 403.71,300.17 403.45,300.61 C401.92,303.09 400.94,304.82 400.60,305.24 C399.75,306.26 394.90,309.58 393.99,309.93 C393.51,310.11 392.25,310.41 391.94,310.44 C391.45,310.48 390.87,310.44 390.06,310.33" fill="none" stroke="rgb(210, 12, 0)" stroke-width="12.00" stroke-opacity="1.00" stroke-linejoin="round"/>
<path d="M362.70,264.00 C362.70,264.00 363.75,264.17 363.75,264.17 C363.60,266.41 358.54,273.14 357.26,276.04 C356.21,278.45 355.60,281.93 355.67,284.77 C355.71,285.72 357.78,299.43 358.72,300.83 C359.83,302.42 364.90,306.83 365.63,307.35 C366.54,307.99 375.56,311.90 375.95,311.98 C376.31,312.06 385.05,312.87 385.66,312.74 C387.70,312.28 389.55,311.50 390.05,311.02 C390.26,310.83 390.47,310.49 390.56,310.28" fill="none" stroke="rgb(210, 12, 0)" stroke-width="12.00" stroke-opacity="1.00" stroke-linejoin="round"/>
<path d="M351.92,310.32 C351.92,310.32 352.22,310.38 352.22,310.38 C352.22,310.38 361.16,310.62 361.16,310.62 C361.15,310.32 362.07,310.61 362.46,310.74 C362.91,310.89 364.14,311.12 365.44,311.34" fill="none" stroke="rgb(210, 12, 0)" stroke-width="12.00" stroke-opacity="1.00" stroke-linejoin="round"/>
<path d="M383.88,311.76 C384.24,311.97 384.57,312.13 384.87,312.25 C385.53,312.51 386.37,312.79 387.38,313.09 C387.77,313.20 388.38,313.36 389.20,313.57" fill="none" stroke="rgb(210, 12, 0)" stroke-width="12.00" stroke-opacity="1.00" stroke-linejoin="round"/>
<path d="M413.26,260.02 C412.80,260.13 411.80,260.51 411.30,260.86 C409.89,261.87 408.44,265.91 408.16,266.67 C408.16,266.67 408.73,257.14 408.73,257.14 C407.12,257.90 405.50,261.43 404.96,263.54 C404.86,263.94 404.65,264.86 404.33,266.29 C404.33,266.29 405.45,256.97 405.45,256.97 C404.30,257.64 403.74,260.84 403.75,262.45 C403.81,265.88 405.24,270.00 406.16,270.63 C407.32,270.60 408.32,269.48 408.68,268.80 C410.65,265.02 409.59,261.09 408.91,260.44 C407.44,261.91 407.08,265.34 407.02,266.68 C406.84,272.47 408.14,275.04 408.45,275.50 C409.53,275.18 409.93,274.93 410.17,274.24 C411.72,269.62 411.66,260.32 411.18,259.13 C408.54,262.31 410.28,281.51 411.18,283.14 C412.37,282.34 413.69,274.79 414.72,263.48 C414.80,262.44 414.81,261.74 414.78,261.34 C413.62,261.66 412.14,264.71 411.69,265.97 C410.38,269.67 409.23,278.63 409.57,281.72 C409.69,282.78 410.14,284.32 410.99,284.87 C411.89,284.23 412.59,282.19 412.76,281.21 C414.98,266.38 417.66,258.07 417.73,257.80 C416.10,260.18 412.71,276.69 413.38,277.89 C413.58,277.88 419.01,263.31 422.63,256.28 C422.65,256.25 422.71,256.16 422.70,256.19 C422.70,256.19 415.25,273.56 415.25,273.56 C415.25,273.56 423.15,259.79 423.15,259.79 C420.43,261.80 411.85,280.39 411.78,281.10 C411.72,281.60 411.73,283.11 411.60,283.57 C411.58,283.62 408.05,293.33 407.90,294.00 C407.90,294.00 413.94,285.40 413.94,285.40 C414.08,286.99 412.74,290.46 410.73,295.24 C407.78,302.17 407.65,302.81 407.59,303.23 C407.59,303.23 411.93,299.47 411.93,299.47 C411.93,299.47 404.06,309.74 404.06,309.74 C404.06,309.74 416.32,308.90 416.32,308.90 C412.85,306.85 411.06,304.14 411.22,303.50 C411.22,303.50 424.67,305.57 424.67,305.57 C413.44,299.77 412.77,297.38 412.71,296.67 C413.37,296.16 414.79,296.43 415.42,296.70 C416.48,297.16 421.40,299.64 421.97,299.64 C421.82,297.52 415.44,289.63 414.77,288.74 C414.77,288.74 417.67,293.07 417.67,293.07 C417.68,292.70 416.18,287.47 415.82,285.19 C415.60,283.76 415.60,281.46 416.10,280.41" fill="none" stroke="rgb(210, 12, 0)" stroke-width="12.00" stroke-opacity="1.00" stroke-linejoin="round"/>
<path d="M445.97,260.87 C446.08,260.99 451.95,267.37 452.44,268.28 C452.90,269.17 456.48,276.42 457.17,279.41 C457.42,280.48 457.43,281.21 457.26,281.77 C457.26,281.77 456.97,282.01 456.97,282.01" fill="none" stroke="rgb(210, 12, 0)" stroke-width="12.00" stroke-opacity="1.00" stroke-linejoin="round"/>
<path d="M458.99,271.34 C458.99,271.34 462.07,261.95 462.07,261.95 C462.07,261.95 462.67,270.52 462.67,270.52 C463.42,267.80 463.95,264.59 463.85,262.75 C463.73,260.70 462.64,258.15 462.07,257.61 C461.15,256.81 457.88,257.71 451.81,260.95 C451.81,260.95 457.24,260.66 457.24,260.66 C456.90,259.63 456.37,259.00 455.16,258.42 C453.96,257.84 452.66,257.30 451.31,256.78" fill="none" stroke="rgb(210, 12, 0)" stroke-width="12.00" stroke-opacity="1.00" stroke-linejoin="round"/>
<path d="M442.23,257.04 C441.22,256.52 437.06,256.04 432.74,256.03 C431.48,256.03 429.05,256.26 427.92,256.44 C427.33,256.53 425.73,256.96 424.86,257.19" fill="none" stroke="rgb(210, 12, 0)" stroke-width="12.00" stroke-opacity="1.00" stroke-linejoin="round"/>
<path d="M441.84,259.36 C441.86,259.38 441.92,259.44 441.90,259.43 C440.70,258.83 439.91,258.74 439.47,258.75 C439.47,258.75 443.00,261.30 443.00,261.30 C441.87,260.35 435.69,260.17 433.03,260.00 C431.48,260.01 429.10,261.27 424.29,265.23 C422.93,266.36 419.43,270.06 418.81,271.66 C417.20,275.92 416.80,283.44 417.22,285.98 C417.47,287.41 418.24,289.00 418.69,289.40 C421.75,292.07 424.03,295.77 426.82,297.86 C428.25,298.91 435.29,300.33 437.51,300.34 C438.58,300.35 445.74,298.87 447.67,297.44 C448.56,296.79 451.46,294.53 452.16,293.99 C452.94,293.36 457.12,286.53 457.50,285.59 C457.87,284.64 458.17,283.09 458.24,282.59" fill="none" stroke="rgb(210, 12, 0)" stroke-width="12.00" stroke-opacity="1.00" stroke-linejoin="round"/>
<path d="M427.08,242.20 C427.85,242.56 428.46,242.83 428.89,243.02 C429.69,243.36 432.07,244.32 432.44,244.47" fill="none" stroke="rgb(210, 12, 0)" stroke-width="12.00" stroke-opacity="1.00" stroke-linejoin="round"/>
<path d="M151.40,279.93 C151.40,279.93 152.25,279.40 152.25,279.40 C152.25,279.40 151.04,278.94 151.04,278.94 C150.58,279.58 150.83,280.45 151.30,280.87 C151.87,281.36 153.24,281.59 153.73,281.18 C154.18,280.78 154.40,279.41 154.10,279.00 C153.77,278.60 152.32,278.12 151.80,278.28 C151.19,278.50 150.78,280.09 151.19,280.84 C151.62,281.60 153.49,282.27 154.28,282.03 C155.11,281.75 155.91,279.98 155.75,279.05 C155.57,278.14 154.03,277.25 153.01,277.45 C151.96,277.69 150.60,279.42 150.65,280.42 C150.75,281.43 152.70,283.06 154.13,283.40 C155.63,283.72 157.59,282.73 157.97,281.45 C158.29,280.23 157.63,278.14 156.65,277.48 C155.70,276.87 153.22,276.59 152.30,277.07 C151.37,277.60 150.11,279.69 150.02,280.75 C149.96,281.83 151.03,283.55 152.07,284.15 C153.03,284.68 155.25,284.92 156.01,284.55 C156.79,284.14 157.47,282.38 157.40,281.26 C157.31,280.17 156.28,278.45 155.37,277.82 C154.49,277.23 152.69,276.94 151.99,277.32 C151.23,277.78 150.19,279.68 150.36,280.82 C150.60,282.16 152.10,284.16 153.89,284.93 C154.94,285.36 156.27,283.27 155.68,282.24 C155.02,281.15 152.01,280.74 151.31,281.55 C150.59,282.41 149.81,284.90 150.13,286.04 C150.70,287.97 152.75,289.01 153.32,289.08 C154.78,289.20 158.09,287.94 159.78,285.55 C160.42,284.60 160.70,280.64 160.36,279.20 C159.91,277.41 159.05,275.55 158.18,274.49 C156.56,272.59 151.68,272.04 149.72,272.76 C148.56,273.20 146.80,275.11 146.58,276.27 C146.47,276.90 146.49,281.12 146.93,282.24 C147.65,284.00 149.21,285.95 149.94,286.73 C148.97,286.55 146.95,285.56 146.29,284.78 C145.17,283.37 144.59,279.85 144.73,277.94 C144.80,277.15 146.11,275.41 147.32,274.26 C148.70,272.99 151.42,271.67 153.03,271.76 C155.94,272.04 161.56,277.79 161.95,279.07 C162.16,279.83 161.96,282.10 161.23,283.66 C160.60,284.91 159.40,285.85 158.31,286.48" fill="none" stroke="rgb(0, 0, 0)" stroke-width="12.00" stroke-opacity="1.00" stroke-linejoin="round"/>
</g>
</svg>
